<?xml version="1.0" standalone="no"?>
<!DOCTYPE svg PUBLIC "-//W3C//DTD SVG 20010904//EN"
 "http://www.w3.org/TR/2001/REC-SVG-20010904/DTD/svg10.dtd">
<svg version="1.0" xmlns="http://www.w3.org/2000/svg"
 width="209.000000pt" height="189.000000pt" viewBox="0 0 209.000000 189.000000"
 preserveAspectRatio="xMidYMid meet">

<g transform="translate(0.000000,189.000000) scale(0.100000,-0.100000)"
fill="#000000" stroke="none">
<path d="M1048 1435 c-16 -9 -32 -31 -41 -57 -33 -91 -131 -476 -135 -529 -4
-52 -2 -57 28 -82 34 -29 85 -36 121 -17 35 19 40 34 174 546 17 65 10 98 -27
129 -34 28 -79 32 -120 10z m81 -69 c8 -10 -6 -76 -60 -277 -39 -145 -73 -267
-75 -271 -9 -14 -52 -8 -58 7 -5 13 126 523 140 546 8 14 40 11 53 -5z"/>
<path d="M528 1252 c-105 -105 -118 -122 -118 -152 0 -45 0 -45 126 -172 103
-104 109 -108 150 -108 66 0 99 33 99 99 0 49 -2 53 -62 113 l-63 63 63 63
c60 60 62 65 62 113 0 43 -4 54 -28 75 -20 17 -40 24 -70 24 -39 0 -46 -5
-159 -118z m190 25 c3 -12 -21 -44 -67 -92 -39 -40 -71 -81 -71 -92 0 -10 32
-50 70 -88 39 -38 70 -77 70 -85 0 -18 -19 -40 -33 -40 -20 0 -207 194 -207
214 0 13 36 57 93 114 73 74 97 92 117 90 15 -2 26 -10 28 -21z"/>
<path d="M1317 1346 c-57 -53 -48 -106 33 -190 l59 -61 -59 -61 c-80 -83 -90
-135 -35 -190 18 -18 35 -24 70 -24 43 0 49 4 132 83 108 103 143 150 143 192
0 39 -18 63 -138 183 -88 88 -94 92 -136 92 -32 0 -50 -6 -69 -24z m175 -133
c61 -61 98 -105 98 -118 0 -14 -37 -57 -99 -119 -89 -87 -102 -96 -120 -86
-34 18 -24 42 45 110 98 97 97 89 10 179 -42 42 -76 85 -76 94 0 14 24 36 40
37 2 0 49 -44 102 -97z"/>
<path d="M660 550 c0 -47 3 -60 15 -60 8 0 15 9 15 20 0 16 7 20 30 20 23 0
30 -4 30 -20 0 -13 7 -20 20 -20 18 0 20 7 20 60 0 53 -2 60 -20 60 -15 0 -20
-7 -20 -25 0 -21 -5 -25 -30 -25 -25 0 -30 4 -30 25 0 16 -6 25 -15 25 -12 0
-15 -13 -15 -60z"/>
<path d="M855 560 c-29 -57 -31 -70 -10 -70 8 0 15 5 15 10 0 6 16 10 35 10
19 0 35 -4 35 -10 0 -5 7 -10 15 -10 8 0 15 5 15 10 0 23 -51 110 -65 110 -8
0 -26 -22 -40 -50z m55 -12 c0 -5 -7 -8 -15 -8 -17 0 -18 2 -9 25 5 13 8 14
15 3 5 -7 9 -16 9 -20z"/>
<path d="M1007 603 c-4 -3 -7 -30 -7 -60 0 -46 3 -53 20 -53 16 0 20 7 20 33
l0 32 20 -25 20 -25 20 25 20 25 0 -32 c0 -23 5 -33 15 -33 12 0 15 13 15 60
0 70 -16 79 -48 29 l-20 -31 -23 31 c-22 30 -39 38 -52 24z"/>
<path d="M1200 550 c0 -53 2 -60 20 -60 18 0 20 7 20 60 0 53 -2 60 -20 60
-18 0 -20 -7 -20 -60z"/>
<path d="M1284 596 c-3 -7 -4 -33 -2 -57 l3 -44 45 -3 c58 -4 83 14 82 59 0
19 -8 39 -18 46 -24 18 -103 17 -110 -1z m91 -46 c0 -20 -6 -26 -27 -28 -25
-3 -28 0 -28 28 0 28 3 31 28 28 21 -2 27 -8 27 -28z"/>
<path d="M805 380 c-4 -7 69 -10 229 -10 131 0 236 4 236 9 0 13 -457 14 -465
1z"/>
</g>
</svg>
